Coordinates
version=1
nRows=11
nColumns=38
inDegrees=no

Units are S.I. units (second, meters, Newtons, ...)
If the header above contains a line with 'inDegrees', this indicates whether rotational values are in degrees (yes) or radians (no).

endheader
time	pelvis_tilt	pelvis_list	pelvis_rotation	pelvis_tx	pelvis_ty	pelvis_tz	hip_flexion_r	hip_adduction_r	hip_rotation_r	knee_angle_r	ankle_angle_r	subtalar_angle_r	mtp_angle_r	hip_flexion_l	hip_adduction_l	hip_rotation_l	knee_angle_l	ankle_angle_l	subtalar_angle_l	mtp_angle_l	lumbar_extension	lumbar_bending	lumbar_rotation	arm_flex_r	arm_add_r	arm_rot_r	elbow_flex_r	pro_sup_r	wrist_flex_r	wrist_dev_r	arm_flex_l	arm_add_l	arm_rot_l	elbow_flex_l	pro_sup_l	wrist_flex_l	wrist_dev_l
0.87	-0.148827	-0.0344121	-0.182584	1.02498	1.03998	-0.32423	0.551183	0.182373	0.222921	-0.227884	0.153766	0.054096	9.92672e-06	-0.0188313	-0.0101788	-0.224802	-1.28621	-0.231262	0.0566948	-6.8431e-05	-0.0303098	0.0854619	0.00215193	-0.816669	-0.28368	-0.277672	1.9513	1.90691	-0.000960851	0.0655155	-0.510728	-0.221943	-0.024863	2.30367	1.80849	0.0999988	0.0999984
0.88	-0.148826	-0.0349356	-0.180605	1.02302	1.03262	-0.324113	0.564284	0.18958	0.21536	-0.304381	0.125731	0.054096	9.92672e-06	0.0214358	-0.0413707	-0.236708	-1.40218	-0.188094	0.0566948	-6.8431e-05	-0.0346479	0.0882384	0.0121912	-0.790688	-0.295335	-0.268415	1.94081	1.89126	-0.000960851	0.0655155	-0.516371	-0.222585	-0.0204145	2.25253	1.82648	0.0999988	0.0999984
0.89	-0.147846	-0.0357201	-0.178209	1.02075	1.02462	-0.324243	0.574772	0.197654	0.21056	-0.383505	0.114128	0.054096	9.92672e-06	0.065337	-0.0684408	-0.242644	-1.50961	-0.148468	0.0566948	-6.8431e-05	-0.0410815	0.0909397	0.0227604	-0.759099	-0.307336	-0.255751	1.92508	1.8788	-0.000960851	0.0655155	-0.520506	-0.222603	-0.0170237	2.19809	1.84433	0.0999988	0.0999984
0.9	-0.145875	-0.0367244	-0.175384	1.01819	1.01623	-0.324606	0.582425	0.206483	0.208474	-0.464707	0.118816	0.054096	9.92672e-06	0.112856	-0.091342	-0.242658	-1.60838	-0.112403	0.0566948	-6.8431e-05	-0.0495711	0.0935257	0.0338187	-0.72192	-0.319656	-0.239677	1.90419	1.86956	-0.000960851	0.0655155	-0.523196	-0.222	-0.014737	2.14051	1.86219	0.0999988	0.0999984
0.91	-0.14291	-0.0378336	-0.172101	1.01538	1.00793	-0.325191	0.586597	0.215683	0.20895	-0.546355	0.139118	0.054096	9.92672e-06	0.163914	-0.109928	-0.236932	-1.6981	-0.0799077	0.0566948	-6.8431e-05	-0.0599807	0.0958439	0.0452505	-0.679267	-0.332202	-0.22023	1.87853	1.86363	-0.000960851	0.0655155	-0.524654	-0.220795	-0.0136773	2.0804	1.88033	0.0999988	0.0999984
0.92	-0.139014	-0.0388169	-0.168304	1.01235	1.00022	-0.325973	0.586176	0.224527	0.21169	-0.625549	0.17336	0.054096	9.92672e-06	0.218314	-0.123954	-0.225882	-1.77807	-0.0509036	0.0566948	-6.8431e-05	-0.0720237	0.0975924	0.0568673	-0.631508	-0.344768	-0.19761	1.84899	1.86116	-0.000960851	0.0655155	-0.525313	-0.219063	-0.0140314	2.01901	1.89901	0.0999988	0.0999984
0.93	-0.134363	-0.0393141	-0.163901	1.00912	0.993434	-0.326908	0.579805	0.231993	0.216251	-0.698452	0.21864	0.054096	9.92672e-06	0.275706	-0.133154	-0.210228	-1.84726	-0.0251598	0.0566948	-6.8431e-05	-0.0851954	0.0983544	0.0684479	-0.579441	-0.356995	-0.172331	1.81715	1.86222	-0.000960851	0.0655155	-0.525842	-0.216976	-0.0159922	1.95833	1.91814	0.0999988	0.0999984
0.94	-0.129304	-0.0388863	-0.158766	1.00573	0.987774	-0.327952	0.566215	0.236942	0.222073	-0.760975	0.270984	0.054096	9.92672e-06	0.335573	-0.137359	-0.191019	-1.90448	-0.0023031	0.0566948	-6.8431e-05	-0.0987637	0.0976821	0.0798029	-0.524426	-0.368367	-0.145355	1.78532	1.86669	-0.000960851	0.0655155	-0.527104	-0.214817	-0.0196755	1.90107	1.93708	0.0999988	0.0999984
0.95	-0.1243	-0.0371539	-0.152764	1.00227	0.98342	-0.329065	0.544542	0.238319	0.228535	-0.809502	0.325777	0.054096	9.92672e-06	0.39722	-0.136617	-0.169607	-1.94854	0.0180958	0.0566948	-6.8431e-05	-0.111808	0.0951768	0.0908425	-0.46839	-0.378242	-0.118127	1.75646	1.87413	-0.000960851	0.0655155	-0.530041	-0.212963	-0.0250415	1.85033	1.95452	0.0999988	0.0999984
0.96	-0.119831	-0.0338243	-0.14581	0.998921	0.98057	-0.330209	0.514486	0.235367	0.235	-0.841428	0.378234	0.054096	9.92672e-06	0.459751	-0.131273	-0.14759	-1.9784	0.0364151	0.0566948	-6.8431e-05	-0.123332	0.0905791	0.101617	-0.41365	-0.385926	-0.0924327	1.73376	1.8838	-0.000960851	0.0655155	-0.53554	-0.211828	-0.0318654	1.80916	1.9686	0.0999988	0.0999984
0.97	-0.116336	-0.0287389	-0.13791	0.995896	0.979356	-0.331344	0.476314	0.227715	0.240839	-0.855424	0.42376	0.054096	9.92672e-06	0.522073	-0.121968	-0.126709	-1.99328	0.0529204	0.0566948	-6.8431e-05	-0.132417	0.08377	0.112283	-0.362573	-0.390795	-0.0700917	1.72019	1.89478	-0.000960851	0.0655155	-0.544307	-0.211766	-0.0397883	1.78009	1.97736	0.0999988	0.0999984
